<svg xmlns="http://www.w3.org/2000/svg" viewBox="0 0 300 265" aria-hidden="true" focusable="false">
	<path d="M295.67,236.74,213.81,95c-2.18-3.77-6.47-4.33-9.55-1.26l-78,78a7.93,7.93,0,0,0,0,11.19l75.63,75.63a22,22,0,0,0,13.51,5.59h64.48C297.25,264.15,304.37,251.81,295.67,236.74Z" style="fill: #fff"/>
	<path d="M59.51,155.38c-3.08-3.08-7.37-2.51-9.55,1.26L3.71,236.74c-8.7,15.07-1.58,27.41,15.82,27.41H78.67a7.93,7.93,0,0,0,7.91-7.91V190.36A22,22,0,0,0,81,176.85Z" style="fill: #fff"/>
	<path d="M119.88,138.9l70-70a10.91,10.91,0,0,0,1.64-12.45h0l-26-45.11h0c-8.7-15.07-22.94-15.07-31.65,0h0L118.24,38.38a35,35,0,0,0-4,14.76v83.44C114.28,140.94,116.8,142,119.88,138.9Z" style="fill: #fff"/>
	<path d="M119.88,215.74c-3.08-3.08-5.59-2-5.59,2.32v38.18a7.93,7.93,0,0,0,7.91,7.91h38.18c4.35,0,5.39-2.52,2.32-5.59Z" style="fill: #fff"/>
	<path d="M82.62,100.06l-10.41,18a10.91,10.91,0,0,0,1.64,12.45L81,137.68c3.08,3.08,5.59,2,5.59-2.32V101.12C86.58,96.77,84.8,96.29,82.62,100.06Z" style="fill: #fff"/>
</svg>