<svg id="logo" xmlns="http://www.w3.org/2000/svg" viewBox="0 0 452.01 512"><defs><style>.cls-1{fill:#fff;}</style></defs><title>logo</title><g id="hexa"><polygon id="tl" class="cls-1" points="27.83 136.62 208.8 32.14 208.8 0 0.74 120.12 0 120.55 0 358.89 27.83 341.82 27.83 136.62"/><polygon id="b" class="cls-1" points="226 479.86 42.97 374.19 15.97 390.74 225.26 511.57 226 512 433.31 392.31 406.32 375.75 226 479.86"/><polygon id="tr" class="cls-1" points="244.14 0.54 244.14 32.68 424.17 136.62 424.17 345.05 452.01 362.12 452.01 120.55 244.14 0.54"/></g><g id="yk"><path id="y" class="cls-1" d="M129.08,170.11L176,245.56,223,170.11h29.49l-63.9,101.74v70H163.48v-70L99.83,170.11h29.24Z" transform="translate(-30 0)"/><path id="k" class="cls-1" d="M304.78,170.11V341.89H280.21V170.11h24.58Zm9.33,79.62,60-79.62h31.21l-65.61,85.27,72.49,86.5H379.73l-65.61-79.62V249.73Z" transform="translate(-30 0)"/></g></svg>